<?xml version="1.0" encoding="utf-8"?>
<!-- Generator: Adobe Illustrator 19.0.0, SVG Export Plug-In . SVG Version: 6.00 Build 0)  -->
<svg version="1.1" id="Layer_1" xmlns="http://www.w3.org/2000/svg" xmlns:xlink="http://www.w3.org/1999/xlink" x="0px" y="0px"
	 viewBox="0 0 262 300" style="enable-background:new 0 0 262 300;" xml:space="preserve">
<style type="text/css">
	.st0{fill:none;stroke:#000000;stroke-width:5;stroke-miterlimit:10;}
</style>
<path id="XMLID_3_" class="st0" d="M53.3,130.6c0.2-2.4,0.7-5,0.6-7.6c-0.2-12.5,0.3-24.8,3.2-37c1.4-5.9,1.7-12,2.6-17.9
	c0.6-4,1.4-7.9,2.4-11.8c1.4-5.9,2.5-11.7,1.7-17.9c-1.4-12.2,2.5-23.2,8.2-33.7c0.7-1.2,1.3-2.4,2.3-3.4c2.2-2.3,6.4-1.2,6.8,2
	c0,0,0,0,0,0c0.9,8,0.3,16-0.6,24.8c-0.4,3-0.7,9.8-0.7,11c-0.2,16.5-2.3,32.8-5.5,48.9c-2,10.1-3,20.5-4.3,30.7
	c-0.3,2.2-0.4,4.5-0.3,6.7c0.4,8.7,3.8,15.4,12.4,18.4c3.2,1.1,6.3,2.5,9.6,3.4c8.1,2.4,16.3,4.7,24.4,7c2,0.5,3.9,1.2,5.9,1.3
	c10.9,0.7,20.5,4.6,29.6,10.2c3.5,2.1,7,4.2,10.6,6c9.6,4.6,18,10.7,24.8,18.7c4.8,5.6,9.9,11.1,14.4,16.9c6,7.8,9.8,16.9,12.6,26.3
	c0.9,3.2,2,6.3,3.8,9.4c5.2-1.9,9.9-3.3,14.5-5.3c5.4-2.3,10.4-0.9,14.5,2c9.2,6.6,15.4,15.2,14.8,27.1c-0.4,7.1-3.1,12.5-10.7,15.5
	c-9.4,3.8-18.8,5.6-28.8,3.6c-3.9-0.8-7.2-0.4-10.8,1.4c-4.2,2.2-8.9,3.5-13.1,5.5c-9.4,4.6-19.2,6.3-29.6,6.2
	c-4.8-0.1-9.6,0.2-14.4,0.6c-11.6,1.1-23-0.9-34.3-2.7c-5.8-0.9-9.4-4.2-8.8-6.9c1-4.5,4.6-6.4,8.7-7.6c1.9-0.6,3.9-1.1,6.1-1.7
	c1.6-6.1,0.9-12.2,0.6-18.1c-0.6-11.9,2.3-22.4,11.1-31c0.7-0.7,1-1.7,1.6-2.9c-0.5-1.1-0.8-2.5-1.6-3.5
	c-9.8-12.6-22.5-20.2-38.6-21.7c-4.3-0.4-6.3,0.7-7.7,4.9c-1,2.8-1.8,5.8-2,8.8c-1.4,17.4-2.3,34.9,0.4,52.3c0.6,3.6,0.3,7.4,0.7,11
	c0.5,4.9-1.4,9.2-3.3,13.6c-1.3,3.1-5.4,3.3-7.4,0.4c-0.9-1.3-1.7-2.9-2-4.5c-0.4-3-0.6-6-0.5-9c0.2-19.5,0.5-39,0.6-58.4
	c0-7.7-0.1-15.5-0.4-23.2c-0.2-4.9-2.3-7.9-4.8-7.9c-2.8,0-6.9,4.7-7.3,8.8c-0.4,3.6-0.5,7.3-0.6,10.9c0,5.4,0.1,10.7,0.2,16.1
	c0.1,12.8,0.1,25.5,0.2,38.3c0,6.6-2.5,12.3-6.5,18.2c-1.8-1.6-3.8-2.6-4.6-4.1c-3-6.7-6-13.5-6-21.2c0-5.4-0.4-10.7-0.4-16.1
	c0-15-1-30-3.4-44.8c-0.4-2.3-0.9-4.6-1.6-6.9c-2.9-8.6-7.9-14-16.7-14c-4.7,0-9.4-0.9-14.1-1.8c-7-1.3-10.1-6.4-11.3-12.7
	c-0.8-4.4-0.3-8.9,2-12.7c4.3-7.3,8.9-14.3,17.1-18c1.9-0.8,3.8-1.6,5.5-2.6c4.4-2.6,6.9-6.5,6.4-11.6c-1.6-16.8-1.5-33.5-0.4-50.3
	c0.9-13.7,5.4-26.3,11.6-38.3c0.6-1.2,1.5-2.3,2.4-3.2c1.7-2.2,5.2-1.6,6,1.1c0.7,2.1,1.2,4.5,1.1,6.8c-1.5,26.1-3.2,52.3-4.6,78.4
	c-0.3,5.3,0.2,10.7,0.7,16C48.6,129.8,49.9,131.5,53.3,130.6z"/>
</svg>
