<?xml version="1.0" encoding="utf-8"?>
<!-- Generator: Adobe Illustrator 19.0.0, SVG Export Plug-In . SVG Version: 6.00 Build 0)  -->
<svg version="1.1" id="Layer_2" xmlns="http://www.w3.org/2000/svg" xmlns:xlink="http://www.w3.org/1999/xlink" x="0px" y="0px"
	 viewBox="0 0 300 300" style="enable-background:new 0 0 300 300;" xml:space="preserve">
<style type="text/css">
	.st0{fill:#FF0099;}
</style>
<g id="XMLID_1_">
	<g id="XMLID_13_">
		<path id="XMLID_17_" class="st0" d="M88.2,91.6c-3.1-5.1,8.2-14.2,11.6-16.7c4.6-3.4,9.8-6,15.3-7.7c11.1-3.4,23.1-2.6,33.7,2.2
			c22,10,38.5,39.2,23.4,61.6c-13.8,20.6-46.2,30.9-67.9,17.1c-10.8-6.9-17.3-19.8-14.5-32.6c2.7-12.4,14-19.4,25.4-22.9
			c23.8-7.2,52.7-4.4,74.1,8.6c10.3,6.3,19,15.8,21.2,28c2.3,13.4-2.9,26.7-10.5,37.5c-14,19.9-35.2,35.4-57.4,45
			c-22.7,9.9-52.6,17.1-75.6,4.5c-10.4-5.7-18.4-15.1-20.5-27c-2.2-12.6,1.8-25.6,9.2-35.8c14.8-20.6,41.4-32.3,65.6-37
			c22.9-4.4,52.4-3.1,65.2,19.7c13.1,23.1,2.5,50.8-13.5,69.4c-15,17.3-36.7,29.9-60,30.4c-12.7,0.3-26-3.3-34.6-13.2
			c-8.5-9.8-9.7-22.9-2.7-33.9c13.4-20.8,43.7-29.4,67-29.4c13,0,27.6,2.2,38,10.7c9.7,8,14.5,21.3,8.4,33
			c-11.6,22.1-42.8,27-65.1,24.7c-24.4-2.5-51.6-12.6-65.6-33.9c-15-22.7-6.9-48.9,7.1-69.9C77.8,105.8,95.2,91,115,81.4
			c20.3-9.9,47.9-17,69.8-8.9c21.3,7.8,34.2,31.3,32.7,53.4c-1.5,22.7-16.7,43.2-36.2,54.1c-22.3,12.5-49.8,14-74.2,7.6
			c-23.6-6.2-46.3-22.1-51-47.4c-4.8-25.6,14.8-47.2,33.6-61.5c35-26.7,102.1-47.7,131.7-2.5c24.9,38.1,14.6,94.9-21.4,122.4
			c-17.4,13.3-39.9,19.7-61.7,17.7c-21.2-2-47.7-13.7-52.3-36.9c-5.1-25.4,21.9-44.8,41.8-54c23.2-10.8,52.8-15.8,76.9-5.3
			c23.4,10.2,35.9,33.7,29.7,58.7c-5.8,23.7-26,40.2-48.3,48c-12.5,4.3-25.9,6.3-39.1,5.4c-12-0.8-26.5-3.7-35.7-12.1
			c-11.1-10.2-5.3-24,4.1-32.9c9.3-8.8,21.7-14.9,33.9-18.6c21.3-6.3,58.6-7.9,67,18.7c4.1,13-3.8,26.3-14.3,33.6
			c-10.4,7.3-23.4,10.6-35.7,12.6c-25.2,4-53.4-1.2-69.7-22.4c-1.6-2-5,0-3.5,2c17.8,23,47.8,28.6,75.2,24
			c13.8-2.3,28.5-6.4,39.4-15.6c9.3-7.8,15.6-20.2,13.2-32.5c-5.7-29-43.2-31.1-66.1-26c-13.8,3-27.1,9.1-38.2,17.8
			c-9,7.1-17.9,18.3-15.1,30.5c2.6,11.5,14.4,17.7,24.8,20.9c14.3,4.5,29.7,5,44.5,2.5c25.6-4.4,51.9-18.9,63.3-43.3
			c11.2-23.8,6.2-52-15.4-68c-23.5-17.4-56-15.5-82.3-6.1c-22.5,8.1-51.1,25.3-54.6,51.4c-3.5,26,22,44,44.4,49.3
			c24.3,5.8,50.9,0.6,71.7-13.3c21.2-14.2,35.1-37.2,39.6-62.2c4.4-24.7,0.1-52.3-15.3-72.6c-17-22.5-45.1-27-71.5-22.5
			C123,52.5,97,65.6,76.6,84.5c-9.8,9.1-18.6,19.8-22.9,32.6c-4,12-2.8,24.9,2.4,36.4c11.8,25.8,40.1,38.1,66.9,41
			c27.4,3,56.8-3.8,76.8-23.6c17.5-17.2,26.6-42.9,18.9-66.8C215.1,93.1,208.3,83,199,75.9c-10.8-8.3-24-11-37.4-10.5
			c-25.8,1-51.1,11-71.4,26.7c-20.1,15.6-38.1,38.7-43,64.2c-11.7,60.9,72.9,89.1,118.9,70.5c11.2-4.5,22.4-12.1,27.5-23.5
			c4.9-11.1,1.6-23.3-6.2-32.1c-8.8-9.9-22.2-13.8-35-15.1c-15-1.5-30.4,0.6-44.5,5.7c-21.3,7.8-49.2,27.3-38.6,53.7
			c10.5,26.1,43.8,28.4,67,20.4c24.5-8.5,45.5-28.5,55.3-52.5c9.9-24.2,4.5-55-20.9-67c-24.6-11.6-56.2-5-79.9,5.8
			c-24.2,10.9-48.5,31.1-48.8,59.8c-0.3,28,25.4,44.3,51.1,44.9c28.4,0.7,57.9-11.6,80.5-28.3c20.9-15.5,44.7-39.8,41.2-68.2
			c-3.4-27.3-33.2-40.7-57.3-44.3c-22.6-3.3-60-1.2-70,24c-4.5,11.2-1.6,24.5,6,33.6c8.2,9.8,21.2,14.8,33.8,14.7
			c25.4-0.2,55.2-19.5,54.7-47.2c-0.5-25.4-22.2-46.9-46.9-49.8c-11.8-1.4-24.1,1.6-34.1,7.9c-6.4,4-21.4,15.3-16.1,24.2
			C86.1,95.8,89.5,93.8,88.2,91.6L88.2,91.6z"/>
	</g>
</g>
</svg>
