<?xml version="1.0" encoding="utf-8"?>
<!-- Generator: Adobe Illustrator 19.0.0, SVG Export Plug-In . SVG Version: 6.00 Build 0)  -->
<svg version="1.1" id="Layer_1" xmlns="http://www.w3.org/2000/svg" xmlns:xlink="http://www.w3.org/1999/xlink" x="0px" y="0px"
	 viewBox="0 0 300 300" style="enable-background:new 0 0 300 300;" xml:space="preserve">
<style type="text/css">
	.st0{fill:#231F20;}
</style>
<g id="XMLID_1_">
	<path id="XMLID_18_" class="st0" d="M88.8,134.9c8.2-13.6,8.7-30.3,11.2-46c2.5-15.7,8.6-32.7,22.8-39.8c1.6-0.8,3.8-1.4,5.2-0.2
		c0.7,0.6,1,1.5,1.2,2.4c6.2,24.3-12.8,48.8-9.9,73.7c0.3,2.2,0.7,4.6,2.2,6.3s4,2.7,6,1.6c1.2-0.7,1.9-1.9,2.6-3.1
		c4.7-8.4,8.1-17.6,10.2-27c3.4-15.9,3.6-34.3,15.6-45.3c0.8-0.7,1.7-1.4,2.8-1.3c1.1,0.2,1.8,1.2,2.4,2.2
		c4.8,9.1,2.8,20.2-0.7,29.8c-3.4,9.7-8.3,19.1-8.9,29.3c-0.2,3.4,0.1,7,1.5,10.1c4,8.7,14.7,11.5,23.8,14.7
		c15.9,5.7,31,17.5,34.9,34c1.7,7.5,1,15.3,1.6,22.9c0.6,7.7,2.8,15.8,8.8,20.6c5.7,4.5,13.4,5.1,20.2,7.5
		c6.8,2.4,13.7,8.7,11.9,15.7c-1.6,6.3-9.2,8.9-15.7,9.2c-8.2,0.3-17.2-1.9-22-8.6c-2.6-3.7-4.3-8.8-8.6-10
		c-2.2-0.6-4.5-0.1-6.8,0.5c-14.6,3.5-29.6,5-44.6,4.6c-7.8-0.2-15.8-1.1-22.4-5.2c-2.3-1.5-4.6-3.6-4.7-6.4c-0.2-4.4,5-7.1,9.5-7.5
		s9.4,0.2,12.9-2.5c5.4-4.1,3.9-12.4,2-18.8c-1.7-5.5-4.8-12-10.5-12c-5,0.1-8.4,5.5-13.4,6.7c-3.8,0.9-7.9-1.1-10.5-4
		s-4-6.7-5.2-10.5c-0.8-2.4-1.7-5-3.5-6.8c-1.9-1.8-5.1-2.4-7-0.7c-0.8,0.8-1.3,1.9-1.6,3c-5.4,16.2-1.5,34.1-4.4,50.9
		c-0.5,2.6-1.2,5.5-3.4,7c-3.2,2.2-7.9,0.2-10-3c-2.1-3.3-2.3-7.4-2.4-11.3c-0.3-8.1-0.5-16.2-0.8-24.3c-0.6,7.6-1.8,15.1-3.6,22.5
		c-0.8,3.4-1.8,6.8-3.8,9.6c-2,2.8-5.4,4.9-8.8,4.6c-3.7-0.4-6.7-3.4-8-6.9c-1.3-3.5-1.2-7.3-1-11c0.4-6.5,1.4-13,4-18.9
		c2.7-5.9,7.3-11.2,13.4-13.5c-5.2-5.5-12.3-9.2-16.5-15.4c-5.7-8.4-4.5-20.7,2.7-27.8c7.2-7.1,19.5-8.3,27.8-2.6"/>
	<g id="XMLID_13_">
		<path id="XMLID_17_" class="st0" d="M91,136.1c7.8-13.5,8.9-29,11.1-44.1c1.9-13,5.5-27.6,15.7-36.6c2.2-2,7.2-6.5,9.2-2.7
			c1.6,3,1.1,8.4,0.9,11.7c-0.4,7.8-2.6,15.3-4.8,22.7c-3.7,12.6-9.3,27.8-5.7,41.1c1.2,4.4,5.2,8.8,10.2,7.2
			c5.5-1.8,8.1-10.8,10-15.6c5.7-13.9,6.2-28.7,10.2-43.1c0.9-3.3,2.1-6.5,3.7-9.5c0.7-1.4,1.6-2.7,2.5-4c0.6-0.8,1.3-1.9,2.1-2.5
			c1.5-1.2,2.3-1.4,3.3,0c2.1,2.9,2.1,8,1.9,11.5c-0.2,4.4-1.2,8.8-2.6,13c-4.2,13.1-14.5,29.6-7.9,43.7
			c5.4,11.5,19.8,13.1,30.1,17.8c12.6,5.7,24.6,15.7,28.1,29.6c3.5,13.9-1.7,30.2,8.2,42.3c4.3,5.2,10.5,7.3,16.8,9
			c6.6,1.7,18.4,4.7,17.8,13.7c-0.6,8.3-12.8,8.9-18.9,8.2c-8.1-1-12.8-4.7-17-11.5c-2.9-4.6-6.4-7.8-12.1-7.1
			c-8.7,1.1-17.1,3.6-25.8,4.4c-8.2,0.8-16.6,1.1-24.9,0.6c-4.2-0.3-8.4-0.8-12.4-2.2c-3.9-1.4-12.4-5.7-6.6-10.2
			c5.1-4,13.3-0.4,18.9-4.4c4.3-3.1,5.3-8.5,4.8-13.4c-0.8-8.2-5.3-24.1-16.5-21.8c-6.7,1.4-10.9,9.9-18.2,4.9
			c-6.6-4.6-5.2-14.1-11-19.2c-12.8-11.1-15.3,15.5-15.6,22.2c-0.4,8.3,0,16.6-0.5,24.9c-0.2,3.3,0,9.2-2.2,12c-3,3.6-6.7,0.3-8-2.3
			c-1.2-2.4-1.4-5.3-1.5-8c-0.4-8.4-0.5-16.7-0.8-25.1c-0.1-3.3-4.7-3.2-5,0c-0.7,7.9-1.8,15.9-3.9,23.5c-1,3.8-2.5,8.3-6.5,10
			c-5.3,2.2-8.7-2.6-9.6-7.2c-1.2-6.6,0.1-14.6,2-20.9c2.1-7.1,6.4-13.7,13.4-16.7c1.7-0.7,2.5-2.7,1.1-4.2
			c-8.8-8.9-22.1-15.2-18.9-30.1c2.9-13.6,18.6-19,29.9-11.8c2.7,1.7,5.2-2.6,2.5-4.3c-12.5-7.9-30.4-3.3-36,10.9
			c-2.6,6.6-2.5,14.2,0.7,20.6c4,7.9,12.3,12.2,18.3,18.3c0.4-1.4,0.7-2.8,1.1-4.2c-8.8,3.7-14.3,11.2-16.9,20.2
			c-2.5,8.6-5,22.2,0.7,30c5.1,7,14.2,6.2,19.2-0.5c3.2-4.3,4.2-10,5.2-15.1c1.3-6.1,2.1-12.3,2.7-18.5c-1.7,0-3.3,0-5,0
			c0.3,9.2,0.2,18.5,1,27.6c0.5,5.8,2.6,11.9,8.7,13.8c15.6,4.9,13.2-24,13.2-32c0-4.3,0-8.6,0.3-12.9c0.2-2.5,0.4-5,0.8-7.5
			c0.3-1.6,0.7-6.7,2-7.9c3.4-3.4,5.6-0.2,6.8,2.9c0.8,2.1,1.4,4.2,2.3,6.2c1.3,3.1,3.1,6.1,5.7,8.3c4.6,3.8,10.2,4.4,15.3,1.4
			c2.6-1.6,5.4-4.8,8.6-4.8c4.4,0,6.5,5.6,7.7,8.9c2.7,7.9,4.2,18.2-6.8,19c-5.6,0.5-12.2,0.3-15.8,5.5c-3.1,4.5-0.6,9.6,3.4,12.5
			c6.1,4.5,14.1,5.8,21.5,6.2c8.9,0.6,17.9,0.2,26.7-0.8c3.9-0.4,7.9-1,11.8-1.7c4.3-0.7,12.6-4.2,16.5-2c2.8,1.6,4,5.2,5.8,7.8
			c1.7,2.5,3.9,4.6,6.4,6.2c5.6,3.5,12.9,4.6,19.4,4.1c11.1-0.9,22.7-10.5,14.3-21.9c-4.1-5.6-10.6-7.9-17.1-9.6
			c-8.9-2.3-16.2-5.1-19.4-14.5c-2.8-8.3-1.7-17.1-2.4-25.7c-0.6-7-2.5-13.7-6.3-19.7c-7.3-11.5-19.4-19.1-32-23.6
			c-6.8-2.4-15-4.3-19.7-10.2c-6-7.6-2.4-18.9,0.5-27c4.9-13.7,13.5-30.1,6-44.6c-7.2-14-18.9,11.6-20.6,17.6
			c-4.5,16-4.9,32.2-12.2,47.4c-0.9,1.9-1.8,3.8-2.9,5.6c-2.1,3.4-5.2,0.8-5.9-2.3c-0.9-3.9-0.6-8.4-0.2-12.4
			c0.9-8.4,3.5-16.5,5.9-24.5c2.1-7.1,4.1-14.3,4.9-21.7c0.6-5.4,1.5-15.9-2.7-20.3c-3.9-4.1-10.2,0.2-13.6,2.8
			c-5.3,4.1-9.3,9.6-12.1,15.6c-6.6,13.8-7.1,28.9-9.6,43.7c-1.4,8.5-3.6,16.7-7.9,24.2C85.1,136.4,89.4,138.9,91,136.1L91,136.1z"
			/>
	</g>
</g>
</svg>
